<svg width="1024" height="1024" viewBox="0 0 1024 1024" fill="none" xmlns="http://www.w3.org/2000/svg">
<rect width="1024" height="1024" fill="white"/>
<mask id="mask0" mask-type="alpha" maskUnits="userSpaceOnUse" x="62" y="62" width="900" height="900">
<circle cx="512" cy="512" r="450" fill="#C4C4C4"/>
</mask>
<g mask="url(#mask0)">
<line y1="511.5" x2="1024" y2="511.5" stroke="black"/>
<line x1="511.5" y1="1024" x2="511.5" stroke="black"/>
<line x1="613.9" y1="1024" x2="613.9" stroke="#828282"/>
<line x1="409.1" y1="1024" x2="409.1" stroke="#828282"/>
<line x1="306.7" y1="1024" x2="306.7" stroke="#828282"/>
<line x1="101.9" y1="1024" x2="101.9" stroke="#828282"/>
<line y1="921.1" x2="1024" y2="921.1" stroke="#828282"/>
<line y1="818.7" x2="1024" y2="818.7" stroke="#828282"/>
<line y1="716.3" x2="1024" y2="716.3" stroke="#828282"/>
<line y1="613.9" x2="1024" y2="613.9" stroke="#828282"/>
<line y1="409.1" x2="1024" y2="409.1" stroke="#828282"/>
<line y1="306.7" x2="1024" y2="306.7" stroke="#828282"/>
<line y1="204.3" x2="1024" y2="204.3" stroke="#828282"/>
<line y1="101.9" x2="1024" y2="101.9" stroke="#828282"/>
<line x1="204.3" y1="1024" x2="204.3" stroke="#828282"/>
<line x1="716.3" y1="1024" x2="716.3" stroke="#828282"/>
<line x1="818.7" y1="1024" x2="818.7" stroke="#828282"/>
<line x1="921.1" y1="1024" x2="921.1" stroke="#828282"/>
<circle cx="512" cy="512" r="435" stroke="black" stroke-width="30"/>
<path d="M755.672 589.89L758.177 581.348C758.374 580.673 758.567 580.019 758.755 579.382C759.597 576.531 760.342 574.004 761.003 571.383C792.444 446.112 730.482 298.452 613.369 200.524C655.974 283.065 671.48 374.581 648.726 457.752C648.726 457.752 648.726 457.753 648.726 457.753L634.258 453.795C633.207 457.636 632.064 461.412 630.843 465.132L755.672 589.89ZM755.672 589.89L761.445 595.657C798.831 641.902 812.279 689.508 815.298 722.829C815.716 727.441 815.929 731.724 815.985 735.645M755.672 589.89L815.985 735.645M815.985 735.645C793.319 709.837 764.412 699.866 738.628 697.515C722.259 696.022 707.097 697.556 695.303 699.853C683.99 702.057 674.418 705.237 669.635 707.933C664.345 710.914 657.912 714.401 652.754 717.168C650.186 718.546 647.953 719.734 646.363 720.578C645.569 721 644.935 721.335 644.502 721.564L644.007 721.825L643.881 721.891L643.851 721.908L643.843 721.911L643.842 721.912C643.842 721.912 643.842 721.912 645.168 724.431L643.842 721.912L643.817 721.925L643.793 721.938C566.731 762.887 461.825 766.583 354.891 720.625C290.868 693.103 234.967 651.546 190.824 602.176C195.732 604.685 200.693 607.116 205.705 609.465L205.709 609.467C325.911 665.766 448.527 662.519 536.591 608.625L555.198 597.238L537.905 583.94C440.852 509.307 356.933 415.644 287.991 331.123C317.307 353.779 347.671 376.451 375.147 396.567C406.799 419.74 434.823 439.668 453.322 452.481C462.502 458.84 469.544 463.591 473.529 466.101C474.518 466.724 475.51 467.33 476.381 467.816C476.781 468.038 477.437 468.395 478.191 468.731C478.543 468.888 479.258 469.196 480.174 469.471C480.18 469.473 480.191 469.477 480.205 469.481C480.578 469.6 483.629 470.575 487.397 469.861C489.821 469.401 494.148 467.901 497.135 463.391C500.049 458.989 499.785 454.573 499.39 452.4C498.749 448.871 496.959 446.49 496.708 446.154C496.697 446.141 496.69 446.13 496.685 446.124C495.767 444.868 494.794 443.955 494.555 443.727C493.762 442.972 492.805 442.169 491.93 441.455C489.775 439.698 484.914 434.657 477.373 426.01C470.136 417.712 461.142 406.929 451.009 394.492C435.944 375.999 418.507 354.028 400.839 331.473C438.264 363.444 472.732 390.712 502.223 412.965C532.921 436.128 558.249 453.875 575.938 465.853C584.784 471.842 591.721 476.391 596.467 479.454C598.84 480.986 600.665 482.146 601.907 482.93C602.529 483.322 603.004 483.62 603.329 483.823L603.437 483.89C603.548 483.959 603.637 484.015 603.704 484.056L603.805 484.119L603.835 484.137L603.844 484.143C603.847 484.145 603.849 484.146 611.73 471.383L815.985 735.645ZM490.986 441.611C490.985 441.61 490.985 441.61 490.984 441.61C491.024 441.631 491.027 441.634 490.986 441.611Z" stroke="black" stroke-width="30"/>
</g>
</svg>
