<svg width="1024" height="1024" viewBox="0 0 1024 1024" fill="none" xmlns="http://www.w3.org/2000/svg">
<rect width="1024" height="1024" fill="white"/>
<mask id="mask0" mask-type="alpha" maskUnits="userSpaceOnUse" x="62" y="62" width="900" height="900">
<circle cx="512" cy="512" r="450" fill="#C4C4C4"/>
</mask>
<g mask="url(#mask0)">
<line y1="511.5" x2="1024" y2="511.5" stroke="black"/>
<line x1="511.5" y1="1024" x2="511.5" stroke="black"/>
<line x1="613.9" y1="1024" x2="613.9" stroke="#828282"/>
<line x1="409.1" y1="1024" x2="409.1" stroke="#828282"/>
<line x1="306.7" y1="1024" x2="306.7" stroke="#828282"/>
<line x1="101.9" y1="1024" x2="101.9" stroke="#828282"/>
<line y1="921.1" x2="1024" y2="921.1" stroke="#828282"/>
<line y1="818.7" x2="1024" y2="818.7" stroke="#828282"/>
<line y1="716.3" x2="1024" y2="716.3" stroke="#828282"/>
<line y1="613.9" x2="1024" y2="613.9" stroke="#828282"/>
<line y1="409.1" x2="1024" y2="409.1" stroke="#828282"/>
<line y1="306.7" x2="1024" y2="306.7" stroke="#828282"/>
<line y1="204.3" x2="1024" y2="204.3" stroke="#828282"/>
<line y1="101.9" x2="1024" y2="101.9" stroke="#828282"/>
<line x1="204.3" y1="1024" x2="204.3" stroke="#828282"/>
<line x1="716.3" y1="1024" x2="716.3" stroke="#828282"/>
<line x1="818.7" y1="1024" x2="818.7" stroke="#828282"/>
<line x1="921.1" y1="1024" x2="921.1" stroke="#828282"/>
<circle cx="512" cy="512" r="435" stroke="black" stroke-width="30"/>
<mask id="path-22-inside-1" fill="white">
<path d="M775.551 575.034C774.651 578.61 773.593 582.08 772.57 585.568C772.597 585.594 772.614 585.612 772.64 585.647C852.305 683.668 830.634 788.745 820.441 768.918C779.039 688.354 687.857 714.881 677 721C666.143 727.119 650.832 735.184 650.832 735.184C569.087 778.622 459.334 781.839 348.968 734.406C256.419 694.622 180.374 626.488 131 547.515C156.098 566.048 183.224 582.36 212.072 595.883C328.705 650.511 445.854 646.568 528.761 595.831C410.764 505.091 312.279 386.911 236.75 291.136C222.23 273.959 209.012 256.117 197.901 237.584C288.344 320.36 508.894 474.656 482.447 453.078C456 431.5 277.775 196.568 282.268 201.105C453.625 373.764 611.73 471.383 611.73 471.383C617.683 474.661 622.115 477.293 625.638 479.6C628.881 471.278 631.819 462.711 634.258 453.795C661.619 353.78 630.831 239.42 561.176 145C720.111 240.443 814.033 421.712 775.551 575.034Z"/>
</mask>
<path d="M775.551 575.034C774.651 578.61 773.593 582.08 772.57 585.568C772.597 585.594 772.614 585.612 772.64 585.647C852.305 683.668 830.634 788.745 820.441 768.918C779.039 688.354 687.857 714.881 677 721C666.143 727.119 650.832 735.184 650.832 735.184C569.087 778.622 459.334 781.839 348.968 734.406C256.419 694.622 180.374 626.488 131 547.515C156.098 566.048 183.224 582.36 212.072 595.883C328.705 650.511 445.854 646.568 528.761 595.831C410.764 505.091 312.279 386.911 236.75 291.136C222.23 273.959 209.012 256.117 197.901 237.584C288.344 320.36 508.894 474.656 482.447 453.078C456 431.5 277.775 196.568 282.268 201.105C453.625 373.764 611.73 471.383 611.73 471.383C617.683 474.661 622.115 477.293 625.638 479.6C628.881 471.278 631.819 462.711 634.258 453.795C661.619 353.78 630.831 239.42 561.176 145C720.111 240.443 814.033 421.712 775.551 575.034Z" stroke="black" stroke-width="60" mask="url(#path-22-inside-1)"/>
</g>
</svg>
