<svg width="1024" height="1024" viewBox="0 0 1024 1024" fill="none" xmlns="http://www.w3.org/2000/svg">
<rect width="1024" height="1024" fill="white"/>
<mask id="mask0" mask-type="alpha" maskUnits="userSpaceOnUse" x="62" y="62" width="900" height="900">
<circle cx="512" cy="512" r="450" fill="#C4C4C4"/>
</mask>
<g mask="url(#mask0)">
<line y1="511.5" x2="1024" y2="511.5" stroke="black"/>
<line x1="511.5" y1="1024" x2="511.5" stroke="black"/>
<line x1="613.9" y1="1024" x2="613.9" stroke="#828282"/>
<line x1="409.1" y1="1024" x2="409.1" stroke="#828282"/>
<line x1="306.7" y1="1024" x2="306.7" stroke="#828282"/>
<line x1="101.9" y1="1024" x2="101.9" stroke="#828282"/>
<line y1="921.1" x2="1024" y2="921.1" stroke="#828282"/>
<line y1="818.7" x2="1024" y2="818.7" stroke="#828282"/>
<line y1="716.3" x2="1024" y2="716.3" stroke="#828282"/>
<line y1="613.9" x2="1024" y2="613.9" stroke="#828282"/>
<line y1="409.1" x2="1024" y2="409.1" stroke="#828282"/>
<line y1="306.7" x2="1024" y2="306.7" stroke="#828282"/>
<line y1="204.3" x2="1024" y2="204.3" stroke="#828282"/>
<line y1="101.9" x2="1024" y2="101.9" stroke="#828282"/>
<line x1="204.3" y1="1024" x2="204.3" stroke="#828282"/>
<line x1="716.3" y1="1024" x2="716.3" stroke="#828282"/>
<line x1="818.7" y1="1024" x2="818.7" stroke="#828282"/>
<line x1="921.1" y1="1024" x2="921.1" stroke="#828282"/>
<circle cx="512" cy="512" r="435" stroke="black" stroke-width="30"/>
<path d="M467 392V332H167L287 512L167 692H467V632" stroke="black" stroke-width="40" stroke-linejoin="round"/>
<path d="M499.578 591.672C522.219 591.672 537.266 581.688 545.422 563.969H546.125V576.344C546.125 585.625 552.031 591.672 560.75 591.672C569.469 591.672 575.234 585.625 575.234 576.203V454.562C575.234 444.438 569.047 438.391 560.047 438.391C551.188 438.391 544.859 444.438 544.859 454.562V527.266C544.859 550.328 531.641 565.516 509.703 565.516C488.75 565.516 478.062 553.422 478.062 530.922V454.562C478.062 444.438 471.734 438.391 462.875 438.391C453.875 438.391 447.688 444.438 447.688 454.562V536.828C447.688 570.719 467.375 591.672 499.578 591.672ZM621.641 591.672C630.5 591.672 636.828 585.625 636.828 575.641V399.438C636.828 389.453 630.5 383.406 621.641 383.406C612.781 383.406 606.453 389.453 606.453 399.438V575.641C606.453 585.625 612.781 591.672 621.641 591.672ZM732.172 591.812C759.734 591.812 781.25 580.703 790.953 561.297C792.219 558.344 793.062 555.531 793.062 553.141C793.062 545.547 787.719 540.766 780.406 540.766C776.047 540.766 772.953 542.312 769.719 546.109C758.469 561.438 748.062 567.203 731.469 567.203C707.281 567.203 692.094 550.328 692.094 523.328V522.625H781.531C790.953 522.625 796.578 517 796.578 507.156C796.578 466.797 769.438 438.391 730.062 438.391C688.156 438.391 661.438 468.766 661.438 515.734C661.438 563.547 687.594 591.812 732.172 591.812ZM692.234 501.391C693.781 478.328 708.969 462.859 729.922 462.859C751.016 462.859 765.5 478.188 766.203 501.391H692.234ZM835.391 591.672C844.391 591.672 850.578 585.484 850.578 575.641V500.125C850.578 481.703 859.016 467.781 879.828 467.641C886.156 467.641 890.656 466.375 893.75 463.703C896.703 461.312 898.25 457.797 898.25 453.016C898.25 448.234 896.984 444.578 894.172 442.328C891.641 439.938 887.562 438.672 882.219 438.672C867.453 438.672 853.812 449.781 849.734 466.375H849.031V453.719C849.031 444.438 843.125 438.391 834.688 438.391C826.109 438.391 820.203 444.438 820.203 453.719V575.641C820.203 585.484 826.25 591.672 835.391 591.672Z" fill="black"/>
</g>
</svg>
